<?xml version="1.0" standalone="no"?>
<!DOCTYPE svg PUBLIC "-//W3C//DTD SVG 20010904//EN"
 "http://www.w3.org/TR/2001/REC-SVG-20010904/DTD/svg10.dtd">
<svg version="1.0" xmlns="http://www.w3.org/2000/svg"
 width="1547.000000pt" height="1547.000000pt" viewBox="0 0 1547.000000 1547.000000"
 preserveAspectRatio="xMidYMid meet">
<metadata>
Created by potrace 1.14, written by Peter Selinger 2001-2017
</metadata>
<g transform="translate(0.000000,1547.000000) scale(0.100000,-0.100000)"
fill="#000000" stroke="none">
<path d="M8196 14688 c-101 -213 -134 -283 -216 -453 -45 -93 -108 -224 -140
-290 -31 -66 -78 -163 -103 -215 -25 -52 -43 -98 -39 -102 14 -14 105 -59 109
-54 3 3 50 101 105 218 55 117 102 215 104 218 3 2 84 3 182 1 97 -2 215 -4
263 -4 l85 -1 53 -126 c29 -69 59 -139 66 -155 29 -65 57 -131 66 -153 l9 -22
70 35 c59 30 69 38 61 53 -5 9 -70 159 -146 332 -75 173 -153 351 -172 395
-32 72 -74 170 -109 250 -7 17 -22 53 -34 80 -49 115 -39 105 -103 105 l-58 0
-53 -112z m144 -193 c23 -55 49 -115 57 -132 7 -18 33 -80 57 -137 l43 -105
-210 4 c-115 2 -210 5 -212 7 -2 2 10 30 25 63 16 33 46 98 68 145 105 225
123 262 126 259 2 -2 22 -49 46 -104z"/>
<path d="M9291 14686 c-5 -17 -12 -45 -16 -62 -6 -30 -4 -32 32 -38 21 -4 103
-23 183 -42 180 -44 172 -42 188 -43 10 -1 12 -11 9 -38 -7 -45 -4 -36 -67
-298 -28 -115 -53 -220 -56 -232 -2 -13 -29 -124 -59 -247 -30 -124 -55 -230
-55 -236 0 -5 11 -10 24 -10 13 0 42 -7 65 -15 52 -18 46 -30 101 215 60 269
189 793 199 808 7 11 17 11 52 2 24 -7 51 -13 59 -15 8 -2 44 -11 80 -20 36
-9 72 -18 80 -20 8 -2 43 -10 76 -19 34 -9 66 -16 72 -16 9 0 36 110 28 118
-3 2 -36 11 -73 19 -86 18 -82 17 -183 42 -106 25 -219 52 -239 56 -59 13
-405 98 -443 109 l-47 14 -10 -32z"/>
<path d="M6758 14615 c-2 -2 -28 -5 -58 -8 -96 -10 -330 -69 -330 -84 0 -8 13
-71 30 -140 16 -69 32 -135 34 -147 3 -11 21 -88 41 -171 19 -82 37 -159 39
-170 3 -11 29 -134 60 -273 31 -140 56 -255 56 -257 0 -4 133 26 139 31 3 2
-8 57 -23 122 -37 152 -76 322 -81 347 -2 11 -9 38 -14 60 -12 49 -40 173 -45
200 -3 11 -10 43 -16 70 -6 28 -14 61 -16 74 -3 14 -13 60 -23 103 l-18 78 41
11 c94 26 185 36 246 27 111 -17 182 -100 183 -217 1 -97 -60 -193 -176 -276
l-28 -20 248 -180 c136 -99 263 -191 283 -204 19 -13 49 -34 66 -47 l31 -24
42 57 c33 45 39 59 29 68 -7 7 -107 76 -223 153 -115 77 -225 154 -244 169
l-33 28 41 49 c22 27 54 76 72 109 94 176 3 397 -184 448 -36 10 -162 20 -169
14z"/>
<path d="M5580 14250 c-71 -37 -361 -177 -517 -250 -40 -19 -73 -37 -73 -40 0
-3 41 -89 91 -190 103 -208 175 -358 321 -665 55 -115 101 -211 103 -213 1 -2
65 27 141 64 172 82 411 197 484 232 30 14 56 27 58 28 6 4 -52 114 -60 114
-4 0 -8 -4 -8 -10 0 -5 -4 -10 -9 -10 -5 0 -94 -41 -198 -91 -103 -50 -208
-100 -233 -111 -25 -11 -57 -26 -71 -34 l-27 -13 -96 195 c-54 108 -96 197
-94 198 134 66 433 208 495 236 l51 23 -26 53 c-14 30 -29 54 -33 54 -4 0 -33
-13 -65 -29 -145 -72 -459 -223 -467 -224 -5 -1 -47 77 -93 173 l-84 175 133
65 c73 36 195 94 270 129 75 36 137 69 137 73 0 9 -49 108 -53 107 -1 0 -36
-18 -77 -39z"/>
<path d="M10796 14238 c-182 -438 -301 -717 -403 -946 -30 -68 -53 -125 -51
-126 1 -1 28 -13 58 -25 30 -13 61 -25 68 -28 6 -3 12 0 12 6 0 6 11 35 25 65
14 30 25 58 25 61 0 5 24 62 50 120 5 11 30 70 55 130 26 61 53 124 61 142 8
17 14 33 14 36 0 3 13 34 29 69 44 96 66 147 96 218 15 36 32 71 37 78 6 6 8
12 5 12 -4 0 9 32 28 72 19 40 35 78 35 84 0 7 -12 17 -27 22 -16 6 -45 17
-66 26 l-38 17 -13 -33z"/>
<path d="M11651 13719 c-174 -33 -320 -133 -425 -293 -52 -78 -98 -179 -111
-241 -3 -17 -8 -71 -11 -121 -6 -134 37 -273 113 -360 14 -16 32 -38 42 -49
24 -30 114 -94 172 -121 184 -89 410 -60 594 76 125 92 233 259 268 415 61
263 -60 522 -298 642 -97 49 -243 71 -344 52z m228 -139 c64 -15 155 -75 199
-129 76 -94 102 -220 75 -355 -78 -383 -478 -603 -745 -409 -199 144 -219 433
-47 668 67 91 157 166 247 204 93 39 171 45 271 21z"/>
<path d="M4288 13444 c-63 -15 -155 -57 -223 -103 -25 -17 -50 -31 -55 -31 -4
0 -10 -4 -12 -8 -1 -4 -40 -36 -85 -71 -46 -35 -83 -66 -83 -68 0 -4 158 -207
201 -258 10 -11 47 -58 83 -105 37 -47 72 -92 79 -100 7 -8 88 -114 181 -235
93 -121 174 -226 181 -233 10 -11 22 -6 68 29 62 48 62 48 7 112 -10 12 -55
69 -100 126 l-83 105 29 23 c104 86 190 184 228 258 33 66 38 94 39 191 0 70
-4 90 -31 148 -48 103 -158 199 -253 221 -49 12 -116 11 -171 -1z m160 -153
c48 -25 118 -100 143 -154 25 -56 24 -133 -2 -204 -18 -47 -39 -75 -110 -145
-48 -49 -92 -88 -98 -88 -5 0 -42 42 -83 92 -40 51 -79 100 -85 108 -57 69
-193 254 -193 261 0 10 133 105 175 124 81 37 187 40 253 6z"/>
<path d="M7979 12876 c-2 -2 -51 -7 -108 -10 -57 -4 -118 -8 -135 -11 -17 -2
-53 -6 -81 -9 -150 -17 -334 -48 -510 -88 -71 -16 -141 -31 -155 -34 -14 -2
-36 -9 -50 -14 -14 -5 -61 -19 -105 -31 -165 -44 -454 -148 -638 -228 -26 -11
-48 -20 -50 -20 -4 0 -350 -176 -392 -200 -73 -42 -109 -63 -240 -145 -71 -44
-132 -83 -135 -86 -3 -4 -27 -21 -55 -40 -156 -105 -350 -259 -520 -415 -181
-166 -310 -300 -504 -528 -59 -69 -229 -298 -294 -397 -31 -47 -61 -90 -66
-96 -6 -7 -18 -27 -29 -45 -10 -19 -27 -48 -37 -65 l-19 -32 -106 55 c-58 31
-127 68 -155 83 -79 42 -193 103 -285 153 -195 103 -237 126 -280 149 -25 14
-94 51 -155 83 -163 86 -278 147 -465 247 -392 211 -387 208 -434 208 -54 0
-115 -28 -144 -65 -12 -14 -43 -70 -71 -125 -56 -109 -65 -163 -35 -227 21
-42 52 -66 179 -133 55 -29 152 -81 215 -115 63 -34 174 -93 245 -130 72 -37
135 -71 140 -75 6 -4 51 -29 100 -54 50 -26 113 -59 140 -74 28 -15 104 -56
170 -91 154 -82 238 -127 300 -161 28 -15 88 -48 135 -73 133 -69 245 -129
248 -132 2 -1 -18 -52 -44 -111 -86 -202 -148 -374 -210 -582 -39 -132 -97
-365 -110 -442 -3 -14 -11 -59 -19 -100 -15 -76 -18 -93 -31 -190 -4 -30 -8
-57 -9 -60 -1 -3 -5 -39 -9 -81 -4 -41 -9 -89 -11 -105 -25 -205 -24 -753 1
-952 4 -29 8 -73 19 -172 2 -19 6 -51 9 -70 10 -61 16 -93 26 -160 28 -169 95
-447 158 -650 188 -605 510 -1203 919 -1705 151 -186 419 -462 603 -622 442
-385 980 -710 1505 -910 50 -18 99 -38 110 -42 116 -50 517 -163 726 -205 131
-27 351 -60 464 -71 39 -4 79 -9 89 -11 45 -8 294 -18 466 -18 252 0 521 16
650 39 14 3 48 7 76 10 28 3 61 8 74 10 13 3 42 7 65 10 22 3 47 8 55 10 8 2
29 7 45 10 34 6 69 12 105 20 14 3 35 7 47 9 120 23 610 170 688 206 11 5 56
23 100 41 133 52 258 108 411 185 616 312 1185 764 1609 1279 28 33 53 62 56
65 16 14 205 269 266 360 76 115 201 320 251 415 l32 60 123 -1 c67 0 127 1
133 3 16 6 13 509 -4 505 -18 -3 -17 -1 39 155 l51 143 173 0 c130 0 174 3
177 13 2 6 4 86 3 177 l-1 165 -125 5 -126 5 14 55 c19 73 19 74 47 230 49
273 69 446 82 705 3 72 7 132 9 133 2 2 85 4 184 4 l180 0 3 246 c2 165 -1
249 -8 256 -7 7 -77 11 -196 10 l-186 0 -8 90 c-4 50 -9 98 -10 106 -1 8 -4
37 -8 64 -3 27 -13 90 -22 140 -9 50 -17 100 -19 111 -2 11 -8 45 -14 75 -10
51 -13 65 -26 121 -11 53 -67 269 -80 309 -50 161 -136 404 -181 514 -30 72
-54 131 -54 132 0 1 80 1 178 1 l177 -1 3 257 2 257 -254 0 c-194 0 -255 -3
-258 -12 -2 -7 -3 -48 -3 -90 1 -43 -1 -78 -5 -78 -5 0 -22 27 -39 60 -38 73
-118 205 -205 340 l-66 100 -2 202 -3 202 -152 0 -153 1 -96 105 c-108 118
-295 305 -397 395 l-68 61 135 -1 136 0 -2 180 -3 180 -177 0 -178 1 0 -53 c0
-61 14 -55 -142 -55 -85 0 -87 1 -150 43 -35 23 -64 46 -66 51 -2 4 -9 8 -15
8 -6 0 -20 8 -31 19 -63 56 -536 320 -736 409 -428 190 -923 336 -1350 397
-25 3 -58 8 -75 11 -43 6 -89 11 -170 19 -38 4 -83 9 -100 11 -39 6 -680 16
-686 10z"/>
<path d="M13008 12697 c-14 -12 -47 -40 -73 -62 -26 -22 -59 -50 -74 -63 -14
-13 -91 -78 -171 -145 -80 -67 -147 -124 -150 -127 -3 -3 -41 -34 -85 -70 -44
-35 -86 -70 -93 -77 -7 -7 -56 -47 -108 -89 -57 -46 -91 -80 -87 -87 4 -7 22
-31 41 -54 l34 -43 27 19 c14 10 67 54 117 97 49 44 114 99 144 124 29 25 74
63 100 85 25 22 69 59 96 81 27 23 90 77 139 119 95 81 152 125 143 109 -5 -7
-23 -91 -93 -434 -3 -14 -12 -59 -21 -100 -8 -41 -17 -84 -19 -95 -3 -11 -7
-29 -9 -40 -3 -11 -11 -49 -19 -85 -8 -36 -27 -119 -42 -185 -15 -66 -28 -127
-30 -135 -25 -96 -34 -137 -35 -147 0 -11 25 -25 97 -54 18 -7 31 -1 66 29 24
20 70 60 102 87 33 28 77 66 100 85 22 20 67 58 100 85 33 27 65 54 71 60 6 5
112 93 236 195 l226 185 -36 45 c-58 72 -31 83 -252 -105 -69 -58 -136 -116
-150 -128 -14 -13 -68 -58 -120 -102 -52 -44 -97 -82 -100 -85 -12 -12 -136
-117 -145 -122 -11 -7 22 165 120 637 30 143 56 271 59 285 2 14 16 78 30 143
31 139 29 124 14 130 -7 3 -38 16 -69 30 l-56 25 -25 -21z"/>
<path d="M3205 12440 c-127 -36 -233 -108 -310 -213 -176 -237 -145 -547 75
-767 170 -168 400 -249 598 -210 76 15 207 80 257 127 139 130 198 269 191
448 -9 206 -116 385 -308 514 -61 42 -182 95 -238 106 -73 14 -204 12 -265 -5z
m245 -146 c160 -45 316 -175 384 -317 74 -157 69 -299 -15 -422 -82 -121 -202
-178 -359 -171 -269 12 -534 270 -544 530 -4 104 36 206 111 283 105 107 260
143 423 97z"/>
<path d="M14619 11565 c-1 0 -2 -80 -3 -177 l-2 -178 178 0 178 0 0 178 0 177
-175 0 c-96 0 -176 0 -176 0z"/>
<path d="M13459 11210 c-1 -3 -2 -119 -3 -257 l-1 -253 256 0 256 0 1 255 c1
193 -2 255 -11 256 -48 4 -497 3 -498 -1z"/>
<path d="M1128 10949 c-31 -4 -207 -60 -390 -124 -183 -64 -391 -137 -463
-161 -72 -25 -152 -53 -180 -64 -27 -10 -59 -21 -70 -25 -19 -6 -19 -7 5 -25
14 -11 28 -20 32 -20 3 0 41 -20 82 -45 42 -25 78 -45 80 -45 2 0 34 -18 70
-40 164 -100 312 -144 481 -143 137 0 203 17 570 148 88 31 171 60 185 65 14
5 97 34 185 65 88 31 177 61 198 67 21 6 36 15 34 21 -3 10 -42 37 -77 54 -15
7 -241 136 -301 172 -148 88 -294 122 -441 100z"/>
<path d="M2045 10422 c-19 -4 -255 -83 -345 -116 -25 -10 -49 -18 -55 -20 -5
-2 -17 -6 -25 -9 -8 -3 -62 -21 -120 -41 -114 -39 -198 -68 -244 -86 -30 -11
-29 -11 85 -77 247 -142 308 -163 464 -164 94 -1 133 10 520 146 88 31 198 70
245 86 47 16 91 32 99 34 14 6 -194 132 -330 200 -88 45 -210 64 -294 47z"/>
<path d="M14790 10309 c-1 -27 -1 -105 -1 -174 0 -69 0 -162 1 -208 l0 -82
255 0 255 0 0 257 0 256 -255 0 -255 -1 0 -48z"/>
<path d="M2842 10029 c-40 -10 -77 -21 -82 -24 -5 -3 -94 -35 -197 -71 -103
-36 -207 -73 -231 -81 l-43 -15 58 -35 c256 -155 336 -163 623 -63 96 33 216
75 265 92 50 17 91 32 93 33 5 4 -167 103 -243 140 -88 42 -148 49 -243 24z"/>
<path d="M13975 9865 c0 -96 2 -176 5 -176 3 -1 83 -3 178 -4 169 -2 172 -2
173 19 1 12 2 92 3 179 l1 157 -180 0 -180 0 0 -175z"/>
<path d="M13589 9252 l-66 -3 1 -282 1 -282 283 -1 282 0 0 283 0 283 -77 0
c-43 0 -141 2 -218 3 -77 1 -170 1 -206 -1z"/>
<path d="M14209 8682 c-12 -2 -14 -42 -14 -255 l0 -252 258 -1 257 -2 0 257 0
256 -243 0 c-134 0 -250 -1 -258 -3z"/>
<path d="M14709 7583 c0 -33 0 -701 0 -723 1 -13 49 -15 373 -13 205 1 376 2
381 2 4 1 7 172 7 381 l0 380 -380 0 -380 0 -1 -27z"/>
<path d="M13757 7342 l-217 -2 0 -255 0 -255 256 2 257 3 1 252 1 251 -41 4
c-22 2 -138 2 -257 0z"/>
<path d="M13820 6192 c-6 -2 -10 -113 -10 -306 l0 -302 303 0 302 1 3 305 2
305 -295 0 c-162 0 -300 -1 -305 -3z"/>
<path d="M14789 5363 c0 -5 -1 -88 -2 -186 l-2 -177 188 0 187 0 0 185 0 185
-185 0 c-102 0 -185 -3 -186 -7z"/>
<path d="M12870 4980 l-45 -5 0 -180 0 -180 185 -2 185 -3 0 185 0 185 -55 1
c-30 0 -93 1 -140 2 -47 1 -105 0 -130 -3z"/>
<path d="M13664 4498 l1 -303 303 -2 302 -2 1 67 c0 56 0 325 -1 500 l0 42
-303 0 -303 0 0 -302z"/>
<path d="M12625 3813 c-78 -10 -78 -9 -71 -66 3 -29 8 -72 11 -97 2 -25 6 -65
9 -90 3 -25 8 -79 11 -120 3 -41 8 -84 10 -95 3 -16 17 -163 17 -185 1 -20 -3
-30 -9 -27 -7 4 -90 19 -288 51 -135 21 -341 59 -347 62 -5 3 -8 2 -9 -3 0 -4
-3 -21 -6 -38 -3 -16 -6 -47 -7 -69 -1 -32 3 -39 19 -42 106 -14 244 -35 260
-38 17 -3 69 -11 145 -21 8 -2 38 -6 65 -9 83 -12 109 -16 138 -22 16 -3 39
-7 52 -8 12 -2 36 -17 51 -33 88 -91 199 -211 273 -292 l84 -92 49 48 c26 26
48 52 48 59 0 6 -15 24 -32 41 -47 42 -341 351 -349 366 -4 6 -10 48 -14 92
-4 44 -8 94 -10 110 -1 17 -6 66 -10 110 -4 44 -8 94 -10 110 -2 17 -7 71 -11
120 -4 50 -8 101 -9 115 -2 14 -3 35 -4 48 -1 12 -7 21 -13 21 -7 -1 -26 -4
-43 -6z"/>
<path d="M3900 3663 c-110 -121 -460 -490 -642 -677 l-127 -131 47 -47 c25
-27 51 -48 57 -48 6 0 26 17 44 38 19 20 75 80 126 134 l92 96 31 -29 c54 -51
162 -129 215 -156 214 -108 458 -26 554 187 83 182 11 358 -248 607 -44 43
-84 79 -88 81 -4 1 -32 -23 -61 -55z m255 -330 c37 -77 40 -178 8 -239 -30
-55 -99 -123 -151 -146 -47 -21 -125 -26 -182 -10 -33 9 -129 58 -140 71 -3 4
-29 26 -57 50 -29 23 -53 46 -53 50 0 9 8 18 234 254 l171 179 71 -75 c41 -43
83 -100 99 -134z"/>
<path d="M11343 2787 c-200 -127 -344 -294 -394 -457 -35 -113 -34 -220 4
-355 11 -41 71 -137 117 -188 198 -218 507 -240 878 -61 103 50 101 46 60 127
l-19 37 -46 -26 c-171 -95 -387 -140 -533 -109 -132 27 -236 112 -298 242 -35
74 -37 83 -36 178 0 78 5 112 22 156 48 122 152 238 305 340 50 33 94 63 96
65 5 4 -59 104 -68 104 -3 0 -43 -24 -88 -53z"/>
<path d="M5047 2698 c-25 -46 -64 -119 -87 -163 -81 -152 -316 -577 -419 -759
-12 -21 -19 -42 -14 -47 4 -4 33 -21 64 -38 l56 -30 143 267 c79 147 153 285
165 307 61 110 125 224 145 260 13 22 32 57 44 78 23 44 21 44 130 -21 172
-103 224 -223 152 -346 -56 -96 -127 -129 -273 -130 -57 0 -103 -1 -103 -2 0
0 27 -122 61 -270 33 -148 62 -278 64 -289 18 -88 49 -194 54 -190 4 2 23 7
42 10 66 11 89 17 89 23 0 4 -15 63 -34 132 -48 177 -105 410 -108 445 -3 29
-2 30 52 37 94 12 196 53 240 98 59 59 90 125 97 210 12 161 -98 287 -376 433
-53 27 -100 54 -105 58 -21 19 -36 5 -79 -73z"/>
<path d="M6566 2122 c-2 -4 -19 -62 -36 -127 -62 -233 -160 -584 -243 -871
l-44 -151 69 -18 c38 -10 70 -16 72 -14 2 2 36 123 75 269 69 253 129 464 205
725 49 171 51 155 -24 176 -36 10 -66 18 -67 19 -1 0 -4 -4 -7 -8z"/>
<path d="M9575 2067 l-39 -12 -18 -95 c-26 -134 -179 -901 -184 -925 -3 -11
-8 -33 -10 -50 -3 -16 -14 -65 -23 -107 -10 -42 -15 -80 -12 -85 8 -12 120
-42 125 -34 3 4 7 27 11 51 4 25 22 123 41 218 19 96 34 182 34 192 0 12 11
20 33 25 17 4 37 9 42 10 6 2 21 5 35 8 14 3 112 26 218 52 106 26 195 45 196
43 2 -1 45 -59 97 -128 52 -69 97 -127 100 -130 3 -3 25 -32 49 -65 24 -33 44
-62 46 -64 5 -6 114 90 114 100 0 9 -224 301 -267 349 -13 14 -23 28 -23 32 0
3 -6 13 -13 20 -14 14 -282 358 -402 516 -75 98 -78 100 -150 79z m238 -431
c91 -121 125 -172 115 -177 -7 -3 -94 -25 -193 -48 -99 -23 -186 -44 -194 -47
-14 -4 -13 -2 4 77 2 9 6 34 9 55 9 53 34 184 52 266 8 37 14 80 14 95 l1 28
32 -39 c18 -22 90 -116 160 -210z"/>
<path d="M7430 1908 c-36 -16 -66 -31 -67 -32 -1 -1 41 -107 94 -236 52 -129
103 -255 113 -280 87 -223 264 -657 271 -666 5 -6 34 -11 65 -10 l55 1 118
230 c134 263 289 564 398 773 41 79 73 145 71 146 -1 1 -29 17 -60 34 l-57 32
-251 -503 c-139 -276 -255 -506 -260 -511 -4 -4 -11 3 -15 15 -4 13 -54 141
-110 284 -107 268 -220 561 -262 675 -13 35 -27 68 -31 71 -4 4 -36 -6 -72
-23z"/>
</g>
</svg>
