<?xml version="1.0" encoding="utf-8"?>
<!-- Generator: Adobe Illustrator 25.0.1, SVG Export Plug-In . SVG Version: 6.00 Build 0)  -->
<svg version="1.1" id="Layer_1" xmlns="http://www.w3.org/2000/svg" xmlns:xlink="http://www.w3.org/1999/xlink" x="0px" y="0px"
	 viewBox="0 0 703.9 451" style="enable-background:new 0 0 703.9 451;" xml:space="preserve">
<style type="text/css">
	.st0{fill:#E6E6E6;}
	.st1{fill:#FFFFFF;}
	.st2{fill:#FF5821;}
	.st3{fill:#84BC28;}
	.st4{font-family:'ArialMT';}
	.st5{font-size:38.9799px;}
</style>
<path class="st0" d="M0.3,0.4h703.6V451H0.3V0.4z"/>
<path class="st1" d="M20.4,56.9h663.3v171.8H20.4V56.9z"/>
<path class="st0" d="M429.6,305h57.3v57.3h-57.3V305z"/>
<path class="st1" d="M20.4,252.5h663.3v171.8H20.4V252.5z"/>
<path class="st0" d="M653.4,264.8h17.2V282h-17.2V264.8z"/>
<path class="st0" d="M58.7,150H116v57.3H58.7V150z"/>
<path class="st0" d="M58.7,74.5H116v57.3H58.7V74.5z"/>
<path class="st2" d="M0,0h703.6v29.9H0V0z"/>
<circle class="st1" cx="22.2" cy="15.3" r="5.5"/>
<circle class="st1" cx="43.2" cy="15.3" r="5.5"/>
<circle class="st1" cx="64.3" cy="15.3" r="5.5"/>
<path class="st0" d="M648.6,115.8c-12.4-20.9-39.3-27.9-60.3-15.5c-4,2.4-7.7,5.4-10.8,8.9l-2.8-2.5c17.3-19.9,47.5-21.9,67.4-4.6
	c3.8,3.4,7.1,7.3,9.7,11.7L648.6,115.8z"/>
<path class="st2" d="M650.3,164.8l-3.1-2.1c9.4-14.1,10-32.3,1.3-46.9l3.2-1.9C661.2,129.7,660.6,149.5,650.3,164.8L650.3,164.8z"/>
<path class="st2" d="M575.1,170.1c-16.1-18-16.3-45.1-0.4-63.3l2.8,2.5c-14.6,16.7-14.5,41.7,0.4,58.3L575.1,170.1z"/>
<path class="st2" d="M610.7,186c-13.6,0-26.5-5.8-35.6-15.9l2.8-2.5c16.2,18.1,44,19.6,62.1,3.4c2.7-2.4,5.1-5.2,7.2-8.3l3.1,2.1
	C641.5,178,626.6,186,610.7,186z"/>
<path class="st0" d="M522.9,117c-12.4-20.9-39.3-27.9-60.3-15.5c-4,2.4-7.7,5.4-10.8,8.9l-2.8-2.5c17.3-19.9,47.5-21.9,67.4-4.6
	c3.8,3.4,7.1,7.3,9.7,11.7L522.9,117z"/>
<path class="st0" d="M524.6,166l-3.1-2.1c9.4-14.1,10-32.3,1.3-46.9l3.2-1.9C535.4,130.9,534.9,150.7,524.6,166z"/>
<path class="st3" d="M449.4,171.2c-16.1-18-16.3-45.1-0.4-63.3l2.8,2.5c-14.6,16.7-14.5,41.7,0.4,58.3L449.4,171.2z"/>
<path class="st3" d="M485,187.1c-13.6,0-26.5-5.8-35.6-15.9l2.8-2.5c16.2,18.1,44,19.6,62.1,3.4c2.7-2.4,5.1-5.2,7.2-8.3l3.1,2.1
	C515.8,179.2,500.9,187.1,485,187.1L485,187.1z"/>
<path class="st0" d="M186.8,277.4h140.3v8.1H186.8V277.4z"/>
<path class="st2" d="M186.8,306.7h216.6v8.1H186.8V306.7z"/>
<g>
	<path class="st0" d="M186.8,334.4h176.5v8.1H186.8V334.4z"/>
	<path class="st0" d="M186.8,362h103.1v8.1H186.8V362z"/>
	<path class="st0" d="M186.8,389.5h155.5v8.1H186.8V389.5z"/>
	<path class="st0" d="M122.9,274.5h17.2v17.2h-17.2L122.9,274.5z"/>
</g>
<path class="st2" d="M122.9,302.2h17.2v17.2h-17.2L122.9,302.2z"/>
<path class="st0" d="M122.9,329.8h17.2V347h-17.2L122.9,329.8z"/>
<path class="st0" d="M122.9,357.5h17.2v17.2h-17.2L122.9,357.5z"/>
<path class="st0" d="M122.9,385.2h17.2v17.2h-17.2L122.9,385.2z"/>
<text transform="matrix(1 0 0 1 467.6211 150.0002)" class="st3 st4 st5">%</text>
<text transform="matrix(1 0 0 1 595.5253 149.9997)" class="st2 st4 st5">%</text>
</svg>
