<svg id="logo-w" xmlns="http://www.w3.org/2000/svg" xmlns:xlink="http://www.w3.org/1999/xlink" viewBox="0 0 1547.300000 1412.200000" shape-rendering="geometricPrecision" text-rendering="geometricPrecision"><style><![CDATA[#logo-w-circle1 {animation: logo-w-circle1_c_o 1000ms linear 1 normal forwards}@keyframes logo-w-circle1_c_o { 0% {opacity: 0} 10% {opacity: 1} 100% {opacity: 1} }#logo-w-circle2 {animation: logo-w-circle2_c_o 1000ms linear 1 normal forwards}@keyframes logo-w-circle2_c_o { 0% {opacity: 0} 10% {opacity: 1} 100% {opacity: 1} }#logo-w-circle3 {animation: logo-w-circle3_c_o 1000ms linear 1 normal forwards}@keyframes logo-w-circle3_c_o { 0% {opacity: 0} 20% {opacity: 0} 30% {opacity: 1} 100% {opacity: 1} }#logo-w-circle4 {animation: logo-w-circle4_c_o 1000ms linear 1 normal forwards}@keyframes logo-w-circle4_c_o { 0% {opacity: 0} 20% {opacity: 0} 30% {opacity: 1} 100% {opacity: 1} }#logo-w-circle5 {animation: logo-w-circle5__rd 1000ms linear 1 normal forwards}@keyframes logo-w-circle5__rd { 0% {r: 71.725000px} 40% {r: 71.725000px} 70% {r: 118px} 100% {r: 118px} }#logo-w-path18 {animation: logo-w-path18_c_o 1000ms linear 1 normal forwards}@keyframes logo-w-path18_c_o { 0% {opacity: 0} 50% {opacity: 0} 70% {opacity: 1} 100% {opacity: 1} }#logo-w-path19 {animation: logo-w-path19_c_o 1000ms linear 1 normal forwards}@keyframes logo-w-path19_c_o { 0% {opacity: 0} 40% {opacity: 0} 60% {opacity: 1} 100% {opacity: 1} }#logo-w-path20 {animation: logo-w-path20_c_o 1000ms linear 1 normal forwards}@keyframes logo-w-path20_c_o { 0% {opacity: 0} 30% {opacity: 0} 50% {opacity: 1} 100% {opacity: 1} }#logo-w-path21_to {animation: logo-w-path21_to__to 1000ms linear 1 normal forwards}@keyframes logo-w-path21_to__to { 0% {transform: translate(-821.000002px,-598.251671px)} 30% {transform: translate(-821.000002px,-598.251671px)} 40% {transform: translate(-42.400002px,-146.399994px)} 100% {transform: translate(-42.400002px,-146.399994px)} }#logo-w-circle6 {animation: logo-w-circle6_c_o 1000ms linear 1 normal forwards}@keyframes logo-w-circle6_c_o { 0% {opacity: 0} 60% {opacity: 0} 80% {opacity: 1} 100% {opacity: 1} }#logo-w-rect1_to {animation: logo-w-rect1_to__to 1000ms linear 1 normal forwards}@keyframes logo-w-rect1_to__to { 0% {transform: translate(1101.500073px,750.700017px)} 30% {transform: translate(1101.500073px,750.700017px);animation-timing-function: cubic-bezier(0.470000,0,0.745000,0.715000)} 60% {transform: translate(1216.200073px,771.580017px)} 100% {transform: translate(1216.200073px,771.580017px)} }#logo-w-rect2_to {animation: logo-w-rect2_to__to 1000ms linear 1 normal forwards}@keyframes logo-w-rect2_to__to { 0% {transform: translate(1029.499986px,854.189978px)} 30% {transform: translate(1029.499986px,854.189978px);animation-timing-function: cubic-bezier(0.470000,0,0.745000,0.715000)} 60% {transform: translate(1397.049988px,1030.539978px)} 100% {transform: translate(1397.049988px,1030.539978px)} }#logo-w-rect3_to {animation: logo-w-rect3_to__to 1000ms linear 1 normal forwards}@keyframes logo-w-rect3_to__to { 0% {transform: translate(1186.799939px,974.014135px)} 30% {transform: translate(1186.799939px,974.014135px);animation-timing-function: cubic-bezier(0.470000,0,0.745000,0.715000)} 60% {transform: translate(1301.249939px,1000.440033px)} 100% {transform: translate(1301.249939px,1000.440033px)} }#logo-w-rect4_to {animation: logo-w-rect4_to__to 1000ms linear 1 normal forwards}@keyframes logo-w-rect4_to__to { 0% {transform: translate(1122.350000px,937.760031px)} 30% {transform: translate(1122.350000px,937.760031px);animation-timing-function: cubic-bezier(0.470000,0,0.745000,0.715000)} 60% {transform: translate(1179.750000px,974.500031px)} 100% {transform: translate(1179.750000px,974.500031px)} }#logo-w-rect5_to {animation: logo-w-rect5_to__to 1000ms linear 1 normal forwards}@keyframes logo-w-rect5_to__to { 0% {transform: translate(1248.699939px,912.160021px)} 30% {transform: translate(1248.699939px,912.160021px);animation-timing-function: cubic-bezier(0.470000,0,0.745000,0.715000)} 60% {transform: translate(1411.749939px,891.240021px)} 100% {transform: translate(1411.749939px,891.240021px)} }#logo-w-rect6_to {animation: logo-w-rect6_to__to 1000ms linear 1 normal forwards}@keyframes logo-w-rect6_to__to { 0% {transform: translate(1330.550000px,917.100006px)} 30% {transform: translate(1330.550000px,917.100006px);animation-timing-function: cubic-bezier(0.470000,0,0.745000,0.715000)} 60% {transform: translate(1279.250000px,917.100006px)} 100% {transform: translate(1279.250000px,917.100006px)} }#logo-w-rect7_to {animation: logo-w-rect7_to__to 1000ms linear 1 normal forwards}@keyframes logo-w-rect7_to__to { 0% {transform: translate(1291.650012px,751.050006px)} 30% {transform: translate(1291.650012px,751.050006px);animation-timing-function: cubic-bezier(0.470000,0,0.745000,0.715000)} 60% {transform: translate(1509.200012px,757.350006px)} 100% {transform: translate(1509.200012px,757.350006px)} }#logo-w-rect8_to {animation: logo-w-rect8_to__to 1000ms linear 1 normal forwards}@keyframes logo-w-rect8_to__to { 0% {transform: translate(1279.249976px,842.859984px)} 30% {transform: translate(1279.249976px,842.859984px);animation-timing-function: cubic-bezier(0.470000,0,0.745000,0.715000)} 60% {transform: translate(1329.849976px,844.139984px)} 100% {transform: translate(1329.849976px,844.139984px)} }#logo-w-rect9_to {animation: logo-w-rect9_to__to 1000ms linear 1 normal forwards}@keyframes logo-w-rect9_to__to { 0% {transform: translate(1267.350024px,872.844999px)} 30% {transform: translate(1267.350024px,872.844999px);animation-timing-function: cubic-bezier(0.470000,0,0.745000,0.715000)} 60% {transform: translate(1497.650024px,961.654999px)} 100% {transform: translate(1497.650024px,961.654999px)} }#logo-w-rect10_to {animation: logo-w-rect10_to__to 1000ms linear 1 normal forwards}@keyframes logo-w-rect10_to__to { 0% {transform: translate(1158.499976px,750.699982px)} 30% {transform: translate(1158.499976px,750.699982px);animation-timing-function: cubic-bezier(0.470000,0,0.745000,0.715000)} 60% {transform: translate(1122.349976px,750.699982px)} 100% {transform: translate(1122.349976px,750.699982px)} }#logo-w-rect11_to {animation: logo-w-rect11_to__to 1000ms linear 1 normal forwards}@keyframes logo-w-rect11_to__to { 0% {transform: translate(1295.500073px,757.350031px)} 30% {transform: translate(1295.500073px,757.350031px);animation-timing-function: cubic-bezier(0.470000,0,0.745000,0.715000)} 60% {transform: translate(1379.950073px,771.500031px)} 100% {transform: translate(1379.950073px,771.500031px)} }#logo-w-rect12_to {animation: logo-w-rect12_to__to 1000ms linear 1 normal forwards}@keyframes logo-w-rect12_to__to { 0% {transform: translate(1308.350073px,687.300018px)} 30% {transform: translate(1308.350073px,687.300018px);animation-timing-function: cubic-bezier(0.470000,0,0.745000,0.715000)} 60% {transform: translate(1445.450073px,637.300018px)} 100% {transform: translate(1445.450073px,637.300018px)} }#logo-w-rect13_to {animation: logo-w-rect13_to__to 1000ms linear 1 normal forwards}@keyframes logo-w-rect13_to__to { 0% {transform: translate(1374.099998px,687.300018px)} 30% {transform: translate(1374.099998px,687.300018px);animation-timing-function: cubic-bezier(0.470000,0,0.745000,0.715000)} 60% {transform: translate(1348.750000px,687.300018px)} 100% {transform: translate(1348.750000px,687.300018px)} }#logo-w-rect14_to {animation: logo-w-rect14_to__to 1000ms linear 1 normal forwards}@keyframes logo-w-rect14_to__to { 0% {transform: translate(1292.750024px,633.305013px)} 30% {transform: translate(1292.750024px,633.305013px);animation-timing-function: cubic-bezier(0.470000,0,0.745000,0.715000)} 60% {transform: translate(1380.900024px,583.295013px)} 100% {transform: translate(1380.900024px,583.295013px)} }#logo-w-rect15_to {animation: logo-w-rect15_to__to 1000ms linear 1 normal forwards}@keyframes logo-w-rect15_to__to { 0% {transform: translate(1177.200012px,625.064996px)} 30% {transform: translate(1177.200012px,625.064996px);animation-timing-function: cubic-bezier(0.470000,0,0.745000,0.715000)} 60% {transform: translate(1256.200012px,599.464996px)} 100% {transform: translate(1256.200012px,599.464996px)} }#logo-w-rect16_to {animation: logo-w-rect16_to__to 1000ms linear 1 normal forwards}@keyframes logo-w-rect16_to__to { 0% {transform: translate(1279.250000px,570.299994px)} 30% {transform: translate(1279.250000px,570.299994px);animation-timing-function: cubic-bezier(0.470000,0,0.745000,0.715000)} 60% {transform: translate(1504.750000px,469.899994px)} 100% {transform: translate(1504.750000px,469.899994px)} }#logo-w-rect17_to {animation: logo-w-rect17_to__to 1000ms linear 1 normal forwards}@keyframes logo-w-rect17_to__to { 0% {transform: translate(1064.050000px,595.899994px)} 30% {transform: translate(1064.050000px,595.899994px);animation-timing-function: cubic-bezier(0.470000,0,0.745000,0.715000)} 60% {transform: translate(1158.750000px,539.899994px)} 100% {transform: translate(1158.750000px,539.899994px)} }#logo-w-rect18_to {animation: logo-w-rect18_to__to 1000ms linear 1 normal forwards}@keyframes logo-w-rect18_to__to { 0% {transform: translate(1246.600049px,497.900018px)} 30% {transform: translate(1246.600049px,497.900018px);animation-timing-function: cubic-bezier(0.470000,0,0.745000,0.715000)} 60% {transform: translate(1303.550049px,469.700012px)} 100% {transform: translate(1303.550049px,469.700012px)} }#logo-w-rect19_to {animation: logo-w-rect19_to__to 1000ms linear 1 normal forwards}@keyframes logo-w-rect19_to__to { 0% {transform: translate(1093.650073px,475.900000px)} 30% {transform: translate(1093.650073px,475.900000px);animation-timing-function: cubic-bezier(0.470000,0,0.745000,0.715000)} 60% {transform: translate(1195.450073px,469.500000px)} 100% {transform: translate(1195.450073px,469.500000px)} }#logo-w-rect20_to {animation: logo-w-rect20_to__to 1000ms linear 1 normal forwards}@keyframes logo-w-rect20_to__to { 0% {transform: translate(1110.274034px,501.500018px)} 30% {transform: translate(1110.274034px,501.500018px);animation-timing-function: cubic-bezier(0.470000,0,0.745000,0.715000)} 60% {transform: translate(1220.650024px,397.300018px)} 100% {transform: translate(1220.650024px,397.300018px)} }#logo-w-rect21_to {animation: logo-w-rect21_to__to 1000ms linear 1 normal forwards}@keyframes logo-w-rect21_to__to { 0% {transform: translate(1220.949976px,463.625562px)} 30% {transform: translate(1220.949976px,463.625562px);animation-timing-function: cubic-bezier(0.470000,0,0.745000,0.715000)} 60% {transform: translate(1371.349976px,384.340012px)} 100% {transform: translate(1371.349976px,384.340012px)} }#logo-w-rect22_to {animation: logo-w-rect22_to__to 1000ms linear 1 normal forwards}@keyframes logo-w-rect22_to__to { 0% {transform: translate(1246.599951px,469.900005px)} 30% {transform: translate(1246.599951px,469.900005px);animation-timing-function: cubic-bezier(0.470000,0,0.745000,0.715000)} 60% {transform: translate(1479.449951px,341.240005px)} 100% {transform: translate(1479.449951px,341.240005px)} }#logo-w-rect23_to {animation: logo-w-rect23_to__to 1000ms linear 1 normal forwards}@keyframes logo-w-rect23_to__to { 0% {transform: translate(961.800024px,636.099994px)} 30% {transform: translate(961.800024px,636.099994px);animation-timing-function: cubic-bezier(0.470000,0,0.745000,0.715000)} 60% {transform: translate(1093.650024px,575.899994px)} 100% {transform: translate(1093.650024px,575.899994px)} }#logo-w-rect24_to {animation: logo-w-rect24_to__to 1000ms linear 1 normal forwards}@keyframes logo-w-rect24_to__to { 0% {transform: translate(1175.750011px,279.399996px)} 30% {transform: translate(1175.750011px,279.399996px);animation-timing-function: cubic-bezier(0.470000,0,0.745000,0.715000)} 60% {transform: translate(1140.450012px,308.339996px)} 100% {transform: translate(1140.450012px,308.339996px)} }#logo-w-rect25_to {animation: logo-w-rect25_to__to 1000ms linear 1 normal forwards}@keyframes logo-w-rect25_to__to { 0% {transform: translate(1128.323948px,325.689721px)} 30% {transform: translate(1128.323948px,325.689721px);animation-timing-function: cubic-bezier(0.470000,0,0.745000,0.715000)} 60% {transform: translate(1168.249939px,297.439987px)} 100% {transform: translate(1168.249939px,297.439987px)} }#logo-w-rect26_to {animation: logo-w-rect26_to__to 1000ms linear 1 normal forwards}@keyframes logo-w-rect26_to__to { 0% {transform: translate(1415.750061px,493.819992px)} 30% {transform: translate(1415.750061px,493.819992px);animation-timing-function: cubic-bezier(0.470000,0,0.745000,0.715000)} 60% {transform: translate(1415.750061px,493.819992px)} 100% {transform: translate(1415.750061px,493.819992px)} }]]></style><path id="logo-w-path1" d="M418.600000,396.200000C425.788136,401.833804,431.830375,408.792563,436.400000,416.700000C440.422236,423.647913,443.006765,431.333484,444,439.300000C446.118142,454.256487,441.874811,469.416421,432.300000,481.100000C427.860021,486.698551,422.438384,491.442483,416.300000,495.100000C410.188596,498.675611,403.421570,500.987962,396.400000,501.900000C388.066204,503.070654,379.578778,502.457105,371.500000,500.100000C362.328719,497.437834,353.790802,492.947774,346.400000,486.900000C339.569418,481.723498,333.769329,475.312873,329.300000,468C325.118264,461.073852,322.332567,453.396200,321.100000,445.400000C319.931706,437.859430,320.374773,430.156872,322.400000,422.800000C324.406508,415.269087,327.984999,408.248428,332.900000,402.200000C337.600644,396.141949,343.487224,391.106031,350.200000,387.400000C356.529492,383.883288,363.500536,381.672957,370.700000,380.900000C379.071498,380.090685,387.519689,381.044513,395.500000,383.700000C403.897710,386.423438,411.726511,390.659802,418.600000,396.200000ZM410.200000,409C404.049409,404.189571,397.160181,400.407249,389.800000,397.800000C382.733009,395.236640,375.152506,394.413418,367.700000,395.400000C362.859908,395.965849,358.174355,397.459793,353.900000,399.800000C349.408790,402.289040,345.463935,405.655769,342.300000,409.700000C339.115674,413.742206,336.739114,418.359522,335.300000,423.300000C333.924190,428.242758,333.550198,433.410652,334.200000,438.500000C335.082785,445.495247,337.470916,452.216128,341.200000,458.200000C345.046440,464.699622,350.064572,470.429787,356,475.100000C362.098596,480.099502,369.088245,483.899700,376.600000,486.300000C383.289473,488.390006,390.359172,488.970609,397.300000,488C402.136445,487.356368,406.813827,485.831135,411.100000,483.500000C420.111838,478.421150,426.785403,470.025375,429.700000,460.100000C431.094079,455.195949,431.535372,450.070163,431,445C430.256578,438.385812,428.181551,431.990646,424.900000,426.200000C421.242579,419.511514,416.237064,413.654721,410.200000,409Z" transform="matrix(1 0 0 1 -42.40000152587891 -146.39999389648438)" fill="rgb(255,255,255)" stroke="none" stroke-width="1"/><path id="logo-w-path2" d="M509.300000,296.400000C514.660839,303.190371,517.457907,311.652387,517.200000,320.300000C517.200000,329.300000,514.200000,337.700000,508.300000,345.500000C505.556012,349.055141,502.547457,352.397980,499.300000,355.500000C495.800000,358.800000,491.700000,362.300000,487.100000,365.900000L510.600000,395.700000L498.900000,404.800000Q495.800000,400.400000,486.900000,388.900000Q478,377.400000,459.300000,353.300000L444.600000,334.600000L425,310.200000L430.900000,305.500000L435.700000,301.700000C442.559919,296.203523,449.887898,291.318203,457.600000,287.100000C463.361177,283.933398,469.674395,281.896876,476.200000,281.100000C482.351234,280.444944,488.565753,281.446172,494.200000,284C499.800000,286.500000,504.800000,290.700000,509.300000,296.400000ZM497.300000,305.800000C494.032942,301.317864,489.508319,297.906994,484.300000,296C479.500000,294.300000,474,294.200000,467.900000,295.800000C463.990956,296.823396,460.275355,298.478527,456.900000,300.700000C453.400000,303,449.900000,305.400000,446.400000,308.200000L445.100000,309.200000L443.800000,310.200000L451.900000,320.900000C456.900000,327.500000,460.900000,332.800000,463.900000,336.600000L473.600000,348.900000C477.400000,353.600000,479.500000,356.300000,480,357L481.500000,355.800000L482.800000,354.800000C486.170813,352.165651,489.376835,349.326986,492.400000,346.300000C495.293081,343.514746,497.753598,340.312703,499.700000,336.800000C502.600000,331.500000,504,326.300000,503.700000,321.100000C503.400000,315.900000,501.300000,310.800000,497.300000,305.800000Z" transform="matrix(1 0 0 1 -42.40000152587891 -146.39999389648438)" fill="rgb(255,255,255)" stroke="none" stroke-width="1"/><path id="logo-w-path3" d="M661.600000,304.800000L650.800000,309.900000L626,321.700000L607.300000,330.800000C601.700000,333.600000,596.900000,336,593,337.800000L583.500000,317.400000C578.600000,307,573.400000,296.200000,568.100000,285.200000L556.300000,261Q549.100000,246,541,230.100000L555.400000,223.300000L573.100000,214.800000L598.200000,202.700000L608.600000,197.500000L614,208.700000L603.800000,213.500000L580.600000,224.600000L568.800000,230.300000L559.600000,234.800000C562.500000,240.900000,565.400000,247,568.200000,253.100000C571,259.200000,573.700000,264.900000,576.300000,270.300000L584.900000,266.200000L593.800000,262L619.100000,249.700000L630.900000,243.800000L636.300000,255L622.900000,261.200000L599.700000,272.300000L590.500000,276.800000L581.500000,281.100000C586.400000,291.300000,590.400000,299.400000,593.300000,305.300000C596.200000,311.200000,598.700000,316.300000,600.700000,320.300000L612.300000,314.800000L626.900000,307.900000L647.100000,298L656.200000,293.500000Z" transform="matrix(1 0 0 1 -42.40000152587891 -146.39999389648438)" fill="rgb(255,255,255)" stroke="none" stroke-width="1"/><path id="logo-w-path4" d="M794,262.700000L785.100000,274.200000L768.100000,262.100000Q753.400000,251.600000,722.800000,229.200000L722.800000,228.400000C725.626272,226.744228,728.273693,224.800552,730.700000,222.600000C733.667495,220.127261,736.290772,217.268561,738.500000,214.100000C740.324911,211.488684,741.678672,208.578099,742.500000,205.500000C743.443471,201.440776,743.340242,197.208402,742.200000,193.200000C741.403315,189.029467,739.260408,185.235468,736.100000,182.400000C732.877011,179.660980,728.905229,177.953810,724.700000,177.500000C721.015430,176.983976,717.274675,177.017676,713.600000,177.600000C709.800000,178.200000,706.300000,178.800000,703.200000,179.500000L698.400000,180.700000L695.900000,181.300000C698.300000,192.400000,700.500000,202.200000,702.400000,210.600000L706.400000,228.600000C708.200000,236.600000,710.700000,247.400000,713.900000,261.100000C717.100000,274.800000,719.100000,283.400000,720,286.900000L705.600000,290.200000C704.800000,286.600000,703.400000,279.800000,701.200000,269.800000C699,259.800000,696.300000,247.100000,692.900000,232.200000L689.100000,216Q686.400000,204.100000,678.900000,173.100000L687.600000,170.900000L702,167.400000C706.951841,166.323601,711.959515,165.522374,717,165C721.936979,164.502250,726.919515,164.704245,731.800000,165.600000C737.796738,166.560948,743.387833,169.234950,747.900000,173.300000C752.459227,177.413921,755.578694,182.881751,756.800000,188.900000C758.600000,197.100000,757.700000,204.600000,753.800000,211.300000C750.685499,216.989049,746.779948,222.207672,742.200000,226.800000L742.200000,227.200000C752.300000,234.800000,763.200000,242.400000,775,250.200000Z" transform="matrix(1 0 0 1 -42.40000152587891 -146.39999389648438)" fill="rgb(255,255,255)" stroke="none" stroke-width="1"/><path id="logo-w-path5" d="M930.400000,264.400000L916.400000,271.400000C916.100000,270.700000,914.300000,266.200000,910.800000,257.900000C907.300000,249.600000,902.900000,238.900000,897.200000,225.900000L844.200000,225L829.100000,257.100000L823.200000,269.900000L811.400000,263.200000Q813.800000,258.600000,831.200000,222.400000C842.900000,198.300000,855,172.900000,867.500000,146.400000L879.100000,146.600000Q896.400000,186.900000,913.100000,224.900000C924.200000,250.200000,929.900000,263.400000,930.400000,264.400000ZM892.300000,214.300000C889.300000,207,886.100000,199.300000,882.700000,191.300000L872,166.100000L871.700000,166.100000C868.600000,172.600000,864.800000,180.700000,860.400000,190.200000C856,199.700000,852.400000,207.500000,849.500000,213.500000L849.500000,213.500000L892.400000,214.200000Z" transform="matrix(1 0 0 1 -42.40000152587891 -146.39999389648438)" fill="rgb(255,255,255)" stroke="none" stroke-width="1"/><path id="logo-w-path6" d="M1069.100000,190.700000L1057.400000,187.800000L1026.400000,180.300000C1023.400000,192.200000,1021.200000,201.200000,1019.600000,207.400000C1018,213.600000,1016.100000,222,1013.500000,232.600000C1010.900000,243.200000,1008.700000,253.300000,1006.200000,263.800000L1001.400000,285L987.100000,281.600000L992.500000,260.200000C995.100000,249.500000,997.700000,239,1000.100000,228.700000C1002.500000,218.400000,1004.400000,210.500000,1005.900000,204.500000C1007.400000,198.500000,1009.400000,189.400000,1012.200000,176.900000L982.100000,169.800000L969.400000,166.900000L972.200000,154.900000L994,160.200000L1021.400000,166.800000L1056.600000,175.100000L1071.900000,178.600000Z" transform="matrix(1 0 0 1 -42.40000152587891 -146.39999389648438)" fill="rgb(255,255,255)" stroke="none" stroke-width="1"/><path id="logo-w-path7" d="M1090,315.500000L1076.400000,309.700000C1077.900000,306.500000,1080.500000,300.600000,1084.200000,292.200000C1087.900000,283.800000,1093.200000,271.700000,1100,255.800000L1110.400000,231.100000Q1116.800000,215.800000,1123.600000,199.300000L1137.200000,205.100000Q1132,216.800000,1125.200000,232.400000C1120.600000,242.800000,1117,251.300000,1114.200000,257.900000C1107,274.600000,1101.500000,287.600000,1097.700000,296.800000C1093.900000,306,1091.400000,312.200000,1090,315.500000Z" transform="matrix(1 0 0 1 -42.40000152587891 -146.39999389648438)" fill="rgb(255,255,255)" stroke="none" stroke-width="1"/><path id="logo-w-path8" d="M1260.900000,348.800000C1255.812518,356.390184,1249.290184,362.912518,1241.700000,368C1235.044582,372.486461,1227.567944,375.613055,1219.700000,377.200000C1212.201613,378.672774,1204.485120,378.638781,1197,377.100000C1189.894880,375.469124,1183.171710,372.481049,1177.200000,368.300000C1171.287422,364.270689,1166.168507,359.185675,1162.100000,353.300000C1158.101116,347.444421,1155.313156,340.848515,1153.900000,333.900000C1152.232325,325.680286,1152.266358,317.206054,1154,309C1156.019923,299.639702,1159.933498,290.791619,1165.500000,283C1170.265097,275.867916,1176.258003,269.638002,1183.200000,264.600000C1189.801608,259.998001,1197.242222,256.736362,1205.100000,255C1212.560650,253.298682,1220.296995,253.196440,1227.800000,254.700000C1243.067861,257.858390,1256.451991,266.961037,1265,280C1268.939580,286.063507,1271.594232,292.870306,1272.800000,300C1274.265194,308.275064,1273.924069,316.769083,1271.800000,324.900000C1269.650137,333.463170,1265.956353,341.562384,1260.900000,348.800000ZM1247.500000,341.400000C1251.919122,334.961617,1255.231394,327.830092,1257.300000,320.300000C1259.382229,313.046118,1259.690894,305.398089,1258.200000,298C1257.233463,293.225551,1255.439804,288.656796,1252.900000,284.500000C1250.099394,280.214254,1246.459509,276.540351,1242.200000,273.700000C1237.986136,270.754615,1233.226334,268.680701,1228.200000,267.600000C1223.150509,266.616359,1217.961917,266.582447,1212.900000,267.500000C1205.991766,268.899203,1199.452056,271.726265,1193.700000,275.800000C1181.051224,284.821414,1172.014859,298.039313,1168.200000,313.100000C1166.505936,319.918547,1166.403289,327.035432,1167.900000,333.900000C1169.860195,343.829557,1175.641955,352.591975,1184,358.300000C1188.173066,361.231662,1192.904367,363.273951,1197.900000,364.300000C1202.875765,365.317548,1207.999030,365.385406,1213,364.500000C1219.572331,363.365883,1225.837775,360.880136,1231.400000,357.200000C1237.802479,353.104544,1243.284856,347.724323,1247.500000,341.400000Z" transform="matrix(1 0 0 1 -42.40000152587891 -146.39999389648438)" fill="rgb(255,255,255)" stroke="none" stroke-width="1"/><path id="logo-w-path9" d="M1416.500000,429.800000L1391.600000,450.300000L1371.500000,466.900000L1340.600000,493C1333,499.600000,1328.900000,503,1328.400000,503.400000L1316.300000,498.100000Q1327,453.900000,1334.500000,416.900000Q1342,379.900000,1343.200000,374.300000L1343,374.300000L1297.900000,412.400000L1267.200000,438.700000L1258.200000,427.900000C1259.400000,427,1263.600000,423.700000,1270.600000,417.900000L1300.100000,393.500000L1319.900000,376.800000L1346,354.500000L1359.700000,360.800000C1359.300000,362.500000,1356.300000,377,1350.500000,404.200000C1344.700000,431.400000,1339.700000,456.900000,1335,480.600000L1335.200000,480.600000Q1345.800000,471.700000,1370.600000,450.500000L1407.500000,419.100000Z" transform="matrix(1 0 0 1 -42.40000152587891 -146.39999389648438)" fill="rgb(255,255,255)" stroke="none" stroke-width="1"/><path id="logo-w-path10" d="M464.200000,1335.500000C458.251365,1341.797490,450.296256,1345.828078,441.700000,1346.900000C432.632498,1348.093825,423.424283,1346.266241,415.500000,1341.700000C411.557762,1339.527015,407.810512,1337.017695,404.300000,1334.200000C400.500000,1331.300000,396.400000,1327.700000,392.100000,1323.700000L366.100000,1351.300000L355.400000,1341.100000L369.400000,1326.800000C376.200000,1319.900000,386.600000,1309,400.600000,1294.300000C405,1289.600000,410.500000,1283.900000,416.900000,1277C423.300000,1270.100000,430.400000,1262.600000,438.200000,1254.100000L443.800000,1259.300000L448.100000,1263.400000C454.551403,1269.413415,460.473257,1275.970949,465.800000,1283C469.791825,1288.209644,472.714506,1294.156959,474.400000,1300.500000C476.035392,1306.466158,475.966105,1312.771221,474.200000,1318.700000C472.315354,1325.044346,468.878324,1330.818557,464.200000,1335.500000ZM453.100000,1325.100000C457.400000,1320.600000,460,1315.800000,460.900000,1310.800000C461.800000,1305.800000,461.100000,1300.200000,458.700000,1294.400000C457.098510,1290.724374,454.939812,1287.317679,452.300000,1284.300000Q448.100000,1279.500000,443.300000,1275C442.985327,1274.584786,442.615214,1274.214673,442.200000,1273.900000L440.900000,1272.700000C440.500000,1273.200000,437.400000,1276.400000,431.500000,1282.300000L417.800000,1296.500000L407,1307.900000L399.900000,1315.400000L401.300000,1316.700000L402.500000,1317.800000C405.618062,1320.737496,408.889297,1323.508031,412.300000,1326.100000C415.497517,1328.536432,419.035186,1330.490573,422.800000,1331.900000C427.903120,1333.956998,433.479810,1334.545841,438.900000,1333.600000C444,1332.500000,448.700000,1329.700000,453.100000,1325.100000Z" transform="matrix(1 0 0 1 -42.40000152587891 -146.39999389648438)" fill="rgb(255,255,255)" stroke="none" stroke-width="1"/><path id="logo-w-path11" d="M578.800000,1491.400000L564.500000,1494.100000C564,1492.300000,562.400000,1485.500000,559.700000,1473.800000C557,1462.100000,553,1443.800000,547.500000,1419.100000L548,1418.400000C551.217324,1419.101231,554.508771,1419.403507,557.800000,1419.300000C561.631483,1419.424791,565.463066,1419.055076,569.200000,1418.200000C572.302946,1417.410695,575.246222,1416.091296,577.900000,1414.300000C580.800000,1412.500000,583.400000,1409.400000,585.800000,1405C587.958512,1401.321297,588.837632,1397.031192,588.300000,1392.800000C587.771743,1388.617269,585.954302,1384.702781,583.100000,1381.600000C580.686253,1378.754911,577.853873,1376.293438,574.700000,1374.300000C571.400000,1372.200000,568.400000,1370.400000,565.600000,1368.800000L561.200000,1366.500000L559,1365.400000L544.400000,1391.600000L535.500000,1407.800000L519.700000,1437.100000C513,1449.500000,508.800000,1457.300000,507.200000,1460.500000L494.200000,1453.400000C496,1450.300000,499.400000,1444.200000,504.400000,1435.200000C509.400000,1426.200000,515.700000,1415,523.100000,1401.500000C524.500000,1398.900000,527.100000,1394,531,1387C534.900000,1380,541.800000,1366.900000,551.800000,1348L559.700000,1352.100000L572.800000,1359.100000C577.214998,1361.521648,581.488576,1364.192634,585.600000,1367.100000C589.639359,1370.005797,593.242486,1373.474228,596.300000,1377.400000C600.134491,1382.106872,602.591820,1387.782957,603.400000,1393.800000C604.028633,1399.908777,602.735172,1406.061455,599.700000,1411.400000C595.600000,1418.800000,589.900000,1423.800000,582.700000,1426.200000C576.558758,1428.444690,570.125867,1429.791892,563.600000,1430.200000L563.400000,1430.600000C566,1442.900000,569.200000,1455.900000,572.900000,1469.500000C576.600000,1483.100000,578.500000,1490.400000,578.800000,1491.400000Z" transform="matrix(1 0 0 1 -42.40000152587891 -146.39999389648438)" fill="rgb(255,255,255)" stroke="none" stroke-width="1"/><path id="logo-w-path12" d="M681,1533.100000L666.800000,1529.100000L672.200000,1510.700000C674.800000,1501.900000,678.400000,1489.200000,683.100000,1472.600000L690.200000,1446.800000C693.200000,1436.100000,696.100000,1425,699.200000,1413.500000L713.400000,1417.500000C711,1425.700000,708.200000,1435.200000,705.100000,1446.100000C702,1457,699.400000,1465.900000,697.400000,1472.800000C692.500000,1490.300000,688.800000,1503.900000,686.200000,1513.500000C683.600000,1523.100000,681.900000,1529.600000,681,1533.100000Z" transform="matrix(1 0 0 1 -42.40000152587891 -146.39999389648438)" fill="rgb(255,255,255)" stroke="none" stroke-width="1"/><path id="logo-w-path13" d="M897.700000,1443.400000C897.400000,1444.100000,890.500000,1457.500000,877,1483.400000C863.500000,1509.300000,850.700000,1534.500000,838.400000,1558.600000L826.500000,1558.100000Q809.800000,1515.800000,794.500000,1478.300000L778.500000,1438.900000L792.800000,1432.500000C793.100000,1433.800000,798,1446.400000,807.300000,1470.600000C816.600000,1494.800000,825.500000,1517.400000,834.200000,1538.800000L834.400000,1538.800000C845.100000,1517.800000,856.200000,1495.600000,867.800000,1472.400000C879.400000,1449.200000,885.300000,1437.200000,885.700000,1436.500000Z" transform="matrix(1 0 0 1 -42.40000152587891 -146.39999389648438)" fill="rgb(255,255,255)" stroke="none" stroke-width="1"/><path id="logo-w-path14" d="M1086.400000,1519.600000L1074.600000,1529.800000L1065.900000,1518.200000C1060.500000,1511,1053.400000,1501.700000,1044.700000,1490.500000L993.200000,1502.700000C990.300000,1517.800000,988.100000,1529.400000,986.500000,1537.600000C984.900000,1545.800000,984.100000,1550.400000,984,1551.400000L970.800000,1547.900000C971.600000,1544.500000,974.600000,1529.700000,980,1503.400000C985.400000,1477.100000,990.700000,1449.600000,996.300000,1420.800000L1007.600000,1418.100000Q1034.300000,1453.100000,1059.900000,1485.600000ZM1037.100000,1480.500000C1032.400000,1474.100000,1027.400000,1467.500000,1022.100000,1460.500000C1016.800000,1453.500000,1011.300000,1446.400000,1005.600000,1438.800000L1005.200000,1439C1003.800000,1446.100000,1002.200000,1454.800000,1000.300000,1465.100000C998.400000,1475.400000,996.800000,1483.800000,995.500000,1490.400000L995.500000,1490.400000L1037.200000,1480.500000Z" transform="matrix(1 0 0 1 -42.40000152587891 -146.39999389648438)" fill="rgb(255,255,255)" stroke="none" stroke-width="1"/><path id="logo-w-path15" d="M1241.900000,1437.400000L1243.700000,1441.600000C1244.600000,1443.900000,1245.700000,1446.400000,1246.900000,1449.100000L1245.500000,1449.800000L1244.200000,1450.600000C1231.400000,1457.600000,1219.200000,1462.300000,1207.500000,1464.500000C1195.800000,1466.700000,1185,1466.600000,1175.300000,1464C1168.443907,1462.138038,1162.021682,1458.943916,1156.400000,1454.600000C1150.153841,1449.651403,1145.010605,1443.452270,1141.300000,1436.400000C1137.702903,1430.040525,1135.519924,1422.979954,1134.900000,1415.700000C1134.310333,1408.874144,1134.953924,1401.997880,1136.800000,1395.400000C1139.400000,1386,1144.900000,1376.800000,1153,1367.600000C1161.511369,1358.251056,1171.513609,1350.377671,1182.600000,1344.300000L1184.600000,1343.300000C1185.103359,1342.949578,1185.639142,1342.648201,1186.200000,1342.400000C1186.700000,1343.300000,1187.700000,1344.700000,1189,1346.700000L1193.200000,1353.100000L1191.900000,1353.900000L1190.500000,1354.600000C1183.700252,1358.415129,1177.301394,1362.904381,1171.400000,1368C1165.704429,1372.706807,1160.778468,1378.273817,1156.800000,1384.500000C1152.470514,1391.350327,1149.989903,1399.205595,1149.600000,1407.300000C1149.232027,1414.976233,1151.034207,1422.600839,1154.800000,1429.300000C1158.424324,1436.089481,1163.725832,1441.838519,1170.200000,1446C1176.600000,1450,1184.300000,1452.100000,1193.400000,1452.200000C1201.131177,1452.267956,1208.825015,1451.120630,1216.200000,1448.800000C1223.858673,1446.445583,1231.262288,1443.330034,1238.300000,1439.500000L1239.700000,1438.700000Z" transform="matrix(1 0 0 1 -42.40000152587891 -146.39999389648438)" fill="rgb(255,255,255)" stroke="none" stroke-width="1"/><path id="logo-w-path16" d="M1310.500000,1244.700000C1310.600000,1245.500000,1311.400000,1254.900000,1313,1273.100000C1314.600000,1291.300000,1315.900000,1305.900000,1317,1317.100000C1324.300000,1325,1332.100000,1333.200000,1340.400000,1341.800000L1356.600000,1358.400000L1345.900000,1368.600000L1330,1351.200000C1321.800000,1342.400000,1314.300000,1334.400000,1307.600000,1327.400000C1295.700000,1325.500000,1281.100000,1323.200000,1263.900000,1320.700000L1236.200000,1316.700000L1238.500000,1302.100000L1261.700000,1306.100000C1275.900000,1308.500000,1290.100000,1310.900000,1304.200000,1313.100000L1304.300000,1313.100000C1303,1299.400000,1301.600000,1285.100000,1300,1270C1298.400000,1254.900000,1297.600000,1247.100000,1297.500000,1246.300000Z" transform="matrix(1 0 0 1 -42.40000152587891 -146.39999389648438)" fill="rgb(255,255,255)" stroke="none" stroke-width="1"/><path id="logo-w-path17" d="M417.900000,644.300000L222,539.600000C213.600000,535.100000,210.700000,523.900000,215.700000,514.600000L219.400000,507.700000L223.100000,500.700000C228,491.400000,238.900000,487.500000,247.400000,492L444.300000,597" transform="matrix(1 0 0 1 -42.40000152587891 -146.39999389648438)" fill="rgb(255,255,255)" stroke="none" stroke-width="1"/><circle id="logo-w-circle1" r="512" transform="matrix(1 0 0 1 825.39999999999998 703.89999999999998)" opacity="0" fill="rgb(251,176,59)" stroke="none" stroke-width="1"/><circle id="logo-w-circle2" r="420" transform="matrix(1 0 0 1 825.39999999999998 703.89999999999998)" opacity="0" fill="rgb(255,255,255)" stroke="none" stroke-width="1"/><circle id="logo-w-circle3" r="307" transform="matrix(1 0 0 1 825.39999999999998 703.89999999999998)" opacity="0" fill="rgb(251,176,59)" stroke="none" stroke-width="1"/><circle id="logo-w-circle4" r="213" transform="matrix(1 0 0 1 825.39999999999998 703.89999999999998)" opacity="0" fill="rgb(255,255,255)" stroke="none" stroke-width="1"/><circle id="logo-w-circle5" r="71.725000" transform="matrix(1 0 0 1 825.39999999667953 703.90000000332088)" fill="rgb(26,26,26)" stroke="none" stroke-width="1"/><path id="logo-w-path18" d="M238.800000,564.300000L194.400000,538.800000C179.151490,530.092223,160.879228,528.414530,144.300000,534.200000L42.400000,569.700000L77.300000,589.700000C98.610031,601.942330,124.179448,604.349721,147.400000,596.300000Z" transform="matrix(1 0 0 1 -42.40000152587891 -146.39999389648438)" opacity="0" fill="rgb(251,176,59)" stroke="none" stroke-width="1"/><path id="logo-w-path19" d="M310.800000,608.400000L277.800000,589.500000C266.493241,582.997216,252.921242,581.720281,240.600000,586L164.800000,612.400000L190.800000,627.300000C206.598197,636.424737,225.598417,638.178604,242.800000,632.100000Z" transform="matrix(1 0 0 1 -42.40000152587891 -146.39999389648438)" opacity="0" fill="rgb(251,176,59)" stroke="none" stroke-width="1"/><path id="logo-w-path20" d="M375.800000,639.800000L352.100000,626.200000C343.974678,621.562521,334.244983,620.651501,325.400000,623.700000L271.100000,642.700000L289.700000,653.400000C301.040324,659.925706,314.666703,661.167789,327,656.800000Z" transform="matrix(1 0 0 1 -42.40000152587891 -146.39999389648438)" opacity="0" fill="rgb(251,176,59)" stroke="none" stroke-width="1"/><g id="logo-w-path21_to" transform="translate(-821.000002,-598.251671)"><path id="logo-w-path21" d="M683.100000,781.900000C681.250598,781.254936,679.446549,780.486544,677.700000,779.600000L445.500000,655.900000L224.700000,538.400000C217,534.300000,214.400000,524.100000,218.900000,515.700000L222.200000,509.300000L225.600000,503C230.100000,494.600000,240,491,247.700000,495.100000L468.500000,612.700000L700.900000,736.400000C702.549094,737.210152,704.093728,738.217522,705.500000,739.400000L821,828.100000Z" transform="translate(0,0)" fill="rgb(26,26,26)" stroke="none" stroke-width="1"/></g><circle id="logo-w-circle6" r="59.200000" transform="matrix(1 0 0 1 902.60000000000002 636.79999999999995)" opacity="0" fill="rgb(255,255,255)" stroke="none" stroke-width="1"/><g id="logo-w-rect1_to" transform="translate(1101.500073,750.700017)"><rect id="logo-w-rect1" width="41.800000" height="41.760000" rx="0" ry="0" transform="translate(-20.900073,-20.880017)" fill="rgb(251,176,59)" stroke="none" stroke-width="1"/></g><g id="logo-w-rect2_to" transform="translate(1029.499986,854.189978)"><rect id="logo-w-rect2" width="60.900000" height="60.880000" rx="0" ry="0" transform="translate(-30.449988,-30.439978)" fill="rgb(251,176,59)" stroke="none" stroke-width="1"/></g><g id="logo-w-rect3_to" transform="translate(1186.799939,974.014135)"><rect id="logo-w-rect3" width="37.100000" height="37.080000" rx="0" ry="0" transform="translate(-18.549939,-18.540033)" fill="rgb(251,176,59)" stroke="none" stroke-width="1"/></g><g id="logo-w-rect4_to" transform="translate(1122.350000,937.760031)"><rect id="logo-w-rect4" width="51.300000" height="51.200000" rx="0" ry="0" transform="translate(-25.650000,-25.600031)" fill="rgb(255,255,255)" stroke="none" stroke-width="1"/></g><g id="logo-w-rect5_to" transform="translate(1248.699939,912.160021)"><rect id="logo-w-rect5" width="61.100000" height="61.080000" rx="0" ry="0" transform="translate(-30.549939,-30.540021)" fill="rgb(251,176,59)" stroke="none" stroke-width="1"/></g><g id="logo-w-rect6_to" transform="translate(1330.550000,917.100006)"><rect id="logo-w-rect6" width="51.300000" height="51.200000" rx="0" ry="0" transform="translate(-25.650000,-25.600006)" fill="rgb(255,255,255)" stroke="none" stroke-width="1"/></g><g id="logo-w-rect7_to" transform="translate(1291.650012,751.050006)"><rect id="logo-w-rect7" width="76.400000" height="76.300000" rx="0" ry="0" transform="translate(-38.200012,-38.150006)" fill="rgb(251,176,59)" stroke="none" stroke-width="1"/></g><g id="logo-w-rect8_to" transform="translate(1279.249976,842.859984)"><rect id="logo-w-rect8" width="35.700000" height="35.680000" rx="0" ry="0" transform="translate(-17.849976,-17.839984)" fill="rgb(251,176,59)" stroke="none" stroke-width="1"/></g><g id="logo-w-rect9_to" transform="translate(1267.350024,872.844999)"><rect id="logo-w-rect9" width="37.300000" height="37.310000" rx="0" ry="0" transform="translate(-18.650024,-18.654999)" fill="rgb(251,176,59)" stroke="none" stroke-width="1"/></g><g id="logo-w-rect10_to" transform="translate(1158.499976,750.699982)"><rect id="logo-w-rect10" width="51.300000" height="51.200000" rx="0" ry="0" transform="translate(-25.649976,-25.599982)" fill="rgb(255,255,255)" stroke="none" stroke-width="1"/></g><g id="logo-w-rect11_to" transform="translate(1295.500073,757.350031)"><rect id="logo-w-rect11" width="51.300000" height="51.200000" rx="0" ry="0" transform="translate(-25.650073,-25.600031)" fill="rgb(251,176,59)" stroke="none" stroke-width="1"/></g><g id="logo-w-rect12_to" transform="translate(1308.350073,687.300018)"><rect id="logo-w-rect12" width="51.300000" height="51.200000" rx="0" ry="0" transform="translate(-25.650073,-25.600018)" fill="rgb(251,176,59)" stroke="none" stroke-width="1"/></g><g id="logo-w-rect13_to" transform="translate(1374.099998,687.300018)"><rect id="logo-w-rect13" width="51.300000" height="51.200000" rx="0" ry="0" transform="translate(-25.650000,-25.600018)" fill="rgb(255,255,255)" stroke="none" stroke-width="1"/></g><g id="logo-w-rect14_to" transform="translate(1292.750024,633.305013)"><rect id="logo-w-rect14" width="56.800000" height="56.790000" rx="0" ry="0" transform="translate(-28.400024,-28.395013)" fill="rgb(251,176,59)" stroke="none" stroke-width="1"/></g><g id="logo-w-rect15_to" transform="translate(1177.200012,625.064996)"><rect id="logo-w-rect15" width="58.400000" height="58.330000" rx="0" ry="0" transform="translate(-29.200012,-29.164996)" fill="rgb(255,255,255)" stroke="none" stroke-width="1"/></g><g id="logo-w-rect16_to" transform="translate(1279.250000,570.299994)"><rect id="logo-w-rect16" width="51.300000" height="51.200000" rx="0" ry="0" transform="translate(-25.650000,-25.599994)" fill="rgb(251,176,59)" stroke="none" stroke-width="1"/></g><g id="logo-w-rect17_to" transform="translate(1064.050000,595.899994)"><rect id="logo-w-rect17" width="51.300000" height="51.200000" rx="0" ry="0" transform="translate(-25.650000,-25.599994)" fill="rgb(251,176,59)" stroke="none" stroke-width="1"/></g><g id="logo-w-rect18_to" transform="translate(1246.600049,497.900018)"><rect id="logo-w-rect18" width="51.300000" height="51.200000" rx="0" ry="0" transform="translate(-25.650049,-25.600012)" fill="rgb(251,176,59)" stroke="none" stroke-width="1"/></g><g id="logo-w-rect19_to" transform="translate(1093.650073,475.900000)"><rect id="logo-w-rect19" width="51.300000" height="51.200000" rx="0" ry="0" transform="translate(-25.650073,-25.600000)" fill="rgb(255,255,255)" stroke="none" stroke-width="1"/></g><g id="logo-w-rect20_to" transform="translate(1110.274034,501.500018)"><rect id="logo-w-rect20" width="51.300000" height="51.200000" rx="0" ry="0" transform="translate(-25.650024,-25.600018)" fill="rgb(255,255,255)" stroke="none" stroke-width="1"/></g><g id="logo-w-rect21_to" transform="translate(1220.949976,463.625562)"><rect id="logo-w-rect21" width="51.300000" height="51.280000" rx="0" ry="0" transform="translate(-25.649976,-25.640012)" fill="rgb(251,176,59)" stroke="none" stroke-width="1"/></g><g id="logo-w-rect22_to" transform="translate(1246.599951,469.900005)"><rect id="logo-w-rect22" width="35.500000" height="35.480000" rx="0" ry="0" transform="translate(-17.749951,-17.740005)" fill="rgb(251,176,59)" stroke="none" stroke-width="1"/></g><g id="logo-w-rect23_to" transform="translate(961.800024,636.099994)"><rect id="logo-w-rect23" width="51.300000" height="51.200000" rx="0" ry="0" transform="translate(-25.650024,-25.599994)" fill="rgb(255,255,255)" stroke="none" stroke-width="1"/></g><g id="logo-w-rect24_to" transform="translate(1175.750011,279.399996)"><rect id="logo-w-rect24" width="36.100000" height="36.080000" rx="0" ry="0" transform="translate(-18.050012,-18.039996)" fill="rgb(255,255,255)" stroke="none" stroke-width="1"/></g><g id="logo-w-rect25_to" transform="translate(1128.323948,325.689721)"><rect id="logo-w-rect25" width="36.100000" height="36.080000" rx="0" ry="0" transform="translate(-18.049939,-18.039987)" fill="rgb(251,176,59)" stroke="none" stroke-width="1"/></g><g id="logo-w-rect26_to" transform="translate(1415.750061,493.819992)"><rect id="logo-w-rect26" width="35.900000" height="35.840000" rx="0" ry="0" transform="translate(-17.950061,-17.919992)" fill="rgb(255,255,255)" stroke="none" stroke-width="1"/></g><path id="logo-w-path22" d="" transform="matrix(1 0 0 1 -42.40000152587891 -146.39999389648438)" fill="rgb(255,255,255)" stroke="none" stroke-width="1"/><path id="logo-w-path23" d="" transform="matrix(1 0 0 1 -42.40000152587891 -146.39999389648438)" fill="rgb(255,255,255)" stroke="none" stroke-width="1"/></svg>