<svg xmlns="http://www.w3.org/2000/svg" xmlns:xlink="http://www.w3.org/1999/xlink" version="1.2" viewBox="0 0 1547.3 1547.3" baseProfile="tiny-ps">  <title>OperationPrivacy</title>  <path id="path6" d="M376.2,317.35c7.188,5.634,13.23,12.593,17.8,20.5c4.022,6.948,6.607,14.633,7.6,22.6  c2.118,14.956-2.125,30.116-11.7,41.8c-4.44,5.599-9.862,10.342-16,14c-6.111,3.576-12.878,5.888-19.9,6.8  c-8.334,1.171-16.821,0.557-24.9-1.8c-9.171-2.662-17.709-7.152-25.1-13.2c-6.831-5.177-12.631-11.587-17.1-18.9  c-4.182-6.926-6.967-14.604-8.2-22.6c-1.168-7.541-0.725-15.243,1.3-22.6c2.007-7.531,5.585-14.552,10.5-20.6  c4.701-6.058,10.587-11.094,17.3-14.8c6.329-3.517,13.301-5.727,20.5-6.5c8.371-0.809,16.82,0.145,24.8,2.8  C361.498,307.573,369.326,311.81,376.2,317.35z M367.8,330.15c-6.151-4.81-13.04-8.593-20.4-11.2  c-7.067-2.563-14.647-3.387-22.1-2.4c-4.84,0.566-9.526,2.06-13.8,4.4c-4.491,2.489-8.436,5.856-11.6,9.9  c-3.184,4.042-5.561,8.66-7,13.6c-1.376,4.943-1.75,10.111-1.1,15.2c0.883,6.995,3.271,13.716,7,19.7  c3.846,6.5,8.865,12.23,14.8,16.9c6.099,5,13.088,8.8,20.6,11.2c6.689,2.09,13.759,2.671,20.7,1.7c4.836-0.644,9.514-2.169,13.8-4.5  c9.012-5.079,15.685-13.475,18.6-23.4c1.394-4.904,1.835-10.03,1.3-15.1c-0.743-6.614-2.818-13.009-6.1-18.8  C378.843,340.662,373.837,334.805,367.8,330.15z"/>  <path id="path8" d="M466.9,217.55c5.361,6.79,8.158,15.252,7.9,23.9c0,9-3,17.4-8.9,25.2c-2.744,3.555-5.753,6.898-9,10  c-3.5,3.3-7.6,6.8-12.2,10.4l23.5,29.8l-11.7,9.1c-2.067-2.933-6.067-8.233-12-15.9c-5.933-7.667-15.133-19.533-27.6-35.6  l-14.7-18.7l-19.6-24.4l5.9-4.7l4.8-3.8c6.86-5.496,14.188-10.382,21.9-14.6c5.761-3.167,12.074-5.203,18.6-6  c6.151-0.655,12.366,0.346,18,2.9C457.4,207.65,462.4,211.85,466.9,217.55z M454.9,226.95c-3.267-4.482-7.792-7.893-13-9.8  c-4.8-1.7-10.3-1.8-16.4-0.2c-3.909,1.023-7.625,2.679-11,4.9c-3.5,2.3-7,4.7-10.5,7.5l-1.3,1l-1.3,1l8.1,10.7c5,6.6,9,11.9,12,15.7  l9.7,12.3c3.8,4.7,5.9,7.4,6.4,8.1l1.5-1.2l1.3-1c3.371-2.634,6.577-5.473,9.6-8.5c2.893-2.785,5.354-5.987,7.3-9.5  c2.9-5.3,4.3-10.5,4-15.7S458.9,231.95,454.9,226.95z"/>  <path id="path10" d="M619.2,225.95l-10.8,5.1l-24.8,11.8l-18.7,9.1c-5.6,2.8-10.4,5.2-14.3,7l-9.5-20.4  c-4.9-10.4-10.1-21.2-15.4-32.2l-11.8-24.2c-4.8-10-9.9-20.3-15.3-30.9l14.4-6.8l17.7-8.5l25.1-12.1l10.4-5.2l5.4,11.2l-10.2,4.8  l-23.2,11.1l-11.8,5.7l-9.2,4.5c2.9,6.1,5.8,12.2,8.6,18.3s5.5,11.8,8.1,17.2l8.6-4.1l8.9-4.2l25.3-12.3l11.8-5.9l5.4,11.2  l-13.4,6.2l-23.2,11.1l-9.2,4.5l-9,4.3c4.9,10.2,8.9,18.3,11.8,24.2s5.4,11,7.4,15l11.6-5.5l14.6-6.9l20.2-9.9l9.1-4.5L619.2,225.95  z"/>  <path id="path12" d="M751.6,183.85l-8.9,11.5l-17-12.1c-9.8-7-24.9-17.967-45.3-32.9v-0.8c2.826-1.656,5.474-3.599,7.9-5.8  c2.967-2.473,5.591-5.331,7.8-8.5c1.825-2.611,3.179-5.522,4-8.6c0.943-4.059,0.84-8.292-0.3-12.3c-0.797-4.171-2.94-7.965-6.1-10.8  c-3.223-2.739-7.195-4.446-11.4-4.9c-3.685-0.516-7.425-0.482-11.1,0.1c-3.8,0.6-7.3,1.2-10.4,1.9l-4.8,1.2l-2.5,0.6  c2.4,11.1,4.6,20.9,6.5,29.3l4,18c1.8,8,4.3,18.8,7.5,32.5c3.2,13.7,5.2,22.3,6.1,25.8l-14.4,3.3c-0.8-3.6-2.2-10.4-4.4-20.4  s-4.9-22.7-8.3-37.6l-3.8-16.2c-1.8-7.933-5.2-22.233-10.2-42.9l8.7-2.2l14.4-3.5c4.952-1.076,9.96-1.878,15-2.4  c4.937-0.498,9.919-0.296,14.8,0.6c5.997,0.961,11.588,3.635,16.1,7.7c4.559,4.114,7.679,9.582,8.9,15.6c1.8,8.2,0.9,15.7-3,22.4  c-3.115,5.689-7.02,10.908-11.6,15.5v0.4c10.1,7.6,21,15.2,32.8,23L751.6,183.85z"/>  <path id="path14" d="M888,185.55l-14,7c-0.3-0.7-2.1-5.2-5.6-13.5s-7.9-19-13.6-32l-53-0.9l-15.1,32.1l-5.9,12.8l-11.8-6.7  c1.6-3.067,8.2-16.667,19.8-40.8c11.7-24.1,23.8-49.5,36.3-76l11.6,0.2c11.533,26.867,22.867,52.967,34,78.3  C881.8,171.35,887.5,184.55,888,185.55z M849.9,135.45c-3-7.3-6.2-15-9.6-23l-10.7-25.2h-0.3c-3.1,6.5-6.9,14.6-11.3,24.1  s-8,17.3-10.9,23.3l0,0l42.9,0.7L849.9,135.45z"/>  <path id="path16" d="M1026.7,111.85l-11.7-2.9l-31-7.5c-3,11.9-5.2,20.9-6.8,27.1c-1.6,6.2-3.5,14.6-6.1,25.2s-4.8,20.7-7.3,31.2  l-4.8,21.2l-14.3-3.4l5.4-21.4c2.6-10.7,5.2-21.2,7.6-31.5s4.3-18.2,5.8-24.2c1.5-6,3.5-15.1,6.3-27.6l-30.1-7.1l-12.7-2.9l2.8-12  l21.8,5.3l27.4,6.6l35.2,8.3l15.3,3.5L1026.7,111.85z"/>  <path id="path18" d="M1047.6,236.65l-13.6-5.8c1.5-3.2,4.1-9.1,7.8-17.5s9-20.5,15.8-36.4l10.4-24.7  c4.267-10.2,8.667-20.8,13.2-31.8l13.6,5.8c-3.467,7.8-7.467,16.9-12,27.3c-4.6,10.4-8.2,18.9-11,25.5  c-7.2,16.7-12.7,29.7-16.5,38.9S1049,233.35,1047.6,236.65z"/>  <path id="path20" d="M1218.5,269.95c-5.088,7.59-11.61,14.113-19.2,19.2c-6.655,4.486-14.132,7.613-22,9.2  c-7.498,1.473-15.215,1.439-22.7-0.1c-7.105-1.631-13.828-4.619-19.8-8.8c-5.913-4.029-11.031-9.114-15.1-15  c-3.999-5.856-6.787-12.451-8.2-19.4c-1.668-8.22-1.634-16.694,0.1-24.9c2.02-9.36,5.933-18.208,11.5-26  c4.765-7.132,10.758-13.362,17.7-18.4c6.602-4.602,14.042-7.864,21.9-9.6c7.461-1.701,15.197-1.804,22.7-0.3  c15.268,3.158,28.652,12.261,37.2,25.3c3.94,6.064,6.594,12.87,7.8,20c1.465,8.275,1.124,16.769-1,24.9  C1227.25,254.613,1223.556,262.712,1218.5,269.95z M1205.1,262.55c4.419-6.438,7.731-13.57,9.8-21.1  c2.082-7.254,2.391-14.902,0.9-22.3c-0.967-4.774-2.76-9.343-5.3-13.5c-2.801-4.286-6.44-7.96-10.7-10.8  c-4.214-2.945-8.974-5.019-14-6.1c-5.05-0.984-10.238-1.018-15.3-0.1c-6.908,1.399-13.448,4.226-19.2,8.3  c-12.649,9.021-21.685,22.239-25.5,37.3c-1.694,6.819-1.797,13.935-0.3,20.8c1.96,9.93,7.742,18.692,16.1,24.4  c4.173,2.932,8.904,4.974,13.9,6c4.976,1.018,10.099,1.085,15.1,0.2c6.572-1.134,12.838-3.62,18.4-7.3  C1195.402,274.255,1200.885,268.874,1205.1,262.55z"/>  <path id="path22" d="M1374.1,350.95l-24.9,20.5l-20.1,16.6l-30.9,26.1c-7.6,6.6-11.7,10-12.2,10.4l-12.1-5.3  c7.133-29.467,13.2-56.533,18.2-81.2s7.9-38.867,8.7-42.6h-0.2l-45.1,38.1l-30.7,26.3l-9-10.8c1.2-0.9,5.4-4.2,12.4-10l29.5-24.4  l19.8-16.7l26.1-22.3l13.7,6.3c-0.4,1.7-3.4,16.2-9.2,43.4s-10.8,52.7-15.5,76.4h0.2c7.067-5.933,18.867-15.967,35.4-30.1l36.9-31.4  L1374.1,350.95z"/>  <path id="path24" d="M421.8,1256.65c-5.949,6.297-13.904,10.328-22.5,11.4c-9.068,1.194-18.276-0.634-26.2-5.2  c-3.942-2.173-7.689-4.682-11.2-7.5c-3.8-2.9-7.9-6.5-12.2-10.5l-26,27.6l-10.7-10.2l14-14.3c6.8-6.9,17.2-17.8,31.2-32.5  c4.4-4.7,9.9-10.4,16.3-17.3s13.5-14.4,21.3-22.9l5.6,5.2l4.3,4.1c6.451,6.013,12.373,12.571,17.7,19.6  c3.992,5.21,6.915,11.157,8.6,17.5c1.635,5.966,1.566,12.271-0.2,18.2C429.915,1246.194,426.478,1251.969,421.8,1256.65z   M410.7,1246.25c4.3-4.5,6.9-9.3,7.8-14.3s0.2-10.6-2.2-16.4c-1.602-3.676-3.76-7.082-6.4-10.1c-2.8-3.2-5.8-6.3-9-9.3  c-0.315-0.415-0.685-0.785-1.1-1.1l-1.3-1.2c-0.4,0.5-3.5,3.7-9.4,9.6l-13.7,14.2l-10.8,11.4l-7.1,7.5l1.4,1.3l1.2,1.1  c3.118,2.938,6.389,5.708,9.8,8.3c3.198,2.436,6.735,4.391,10.5,5.8c5.103,2.057,10.68,2.646,16.1,1.7  C401.6,1253.65,406.3,1250.85,410.7,1246.25z"/>  <path id="path26" d="M536.4,1412.55l-14.3,2.7c-0.5-1.8-2.1-8.6-4.8-20.3s-6.7-30-12.2-54.7l0.5-0.7  c3.217,0.701,6.509,1.004,9.8,0.9c3.831,0.125,7.663-0.245,11.4-1.1c3.103-0.789,6.046-2.109,8.7-3.9c2.9-1.8,5.5-4.9,7.9-9.3  c2.159-3.679,3.038-7.969,2.5-12.2c-0.528-4.183-2.346-8.097-5.2-11.2c-2.414-2.845-5.246-5.307-8.4-7.3c-3.3-2.1-6.3-3.9-9.1-5.5  l-4.4-2.3l-2.2-1.1l-14.6,26.2l-8.9,16.2l-15.8,29.3c-6.7,12.4-10.9,20.2-12.5,23.4l-13-7.1c1.8-3.1,5.2-9.2,10.2-18.2  s11.3-20.2,18.7-33.7c1.4-2.6,4-7.5,7.9-14.5s10.8-20.1,20.8-39l7.9,4.1l13.1,7c4.415,2.422,8.689,5.093,12.8,8  c4.039,2.906,7.643,6.374,10.7,10.3c3.834,4.707,6.292,10.383,7.1,16.4c0.629,6.109-0.665,12.261-3.7,17.6  c-4.1,7.4-9.8,12.4-17,14.8c-6.141,2.245-12.574,3.592-19.1,4l-0.2,0.4c2.6,12.3,5.8,25.3,9.5,38.9S536.1,1411.55,536.4,1412.55z"/>  <path id="path28" d="M638.6,1454.25l-14.2-4l5.4-18.4c2.6-8.8,6.2-21.5,10.9-38.1l7.1-25.8c3-10.7,5.9-21.8,9-33.3l14.2,4  c-2.4,8.2-5.2,17.7-8.3,28.6s-5.7,19.8-7.7,26.7c-4.9,17.5-8.6,31.1-11.2,40.7S639.5,1450.75,638.6,1454.25z"/>  <path id="path30" d="M855.3,1364.55c-0.3,0.7-7.2,14.1-20.7,40s-26.3,51.1-38.6,75.2l-11.9-0.5c-11.133-28.2-21.8-54.8-32-79.8  l-16-39.4l14.3-6.4c0.3,1.3,5.2,13.9,14.5,38.1s18.2,46.8,26.9,68.2h0.2c10.7-21,21.8-43.2,33.4-66.4s17.5-35.2,17.9-35.9  L855.3,1364.55z"/>  <path id="path32" d="M1044,1440.75l-11.8,10.2l-8.7-11.6c-5.4-7.2-12.5-16.5-21.2-27.7l-51.5,12.2c-2.9,15.1-5.1,26.7-6.7,34.9  s-2.4,12.8-2.5,13.8l-13.2-3.5c0.8-3.4,3.8-18.2,9.2-44.5s10.7-53.8,16.3-82.6l11.3-2.7c17.8,23.333,35.233,45.833,52.3,67.5  L1044,1440.75z M994.7,1401.65c-4.7-6.4-9.7-13-15-20s-10.8-14.1-16.5-21.7l-0.4,0.2c-1.4,7.1-3,15.8-4.9,26.1s-3.5,18.7-4.8,25.3  l0,0l41.7-9.9H994.7z"/>  <path id="path34" d="M1199.5,1358.55l1.8,4.2c0.9,2.3,2,4.8,3.2,7.5l-1.4,0.7l-1.3,0.8c-12.8,7-25,11.7-36.7,13.9  s-22.5,2.1-32.2-0.5c-6.856-1.862-13.278-5.056-18.9-9.4c-6.246-4.949-11.389-11.148-15.1-18.2c-3.597-6.359-5.78-13.42-6.4-20.7  c-0.59-6.826,0.054-13.702,1.9-20.3c2.6-9.4,8.1-18.6,16.2-27.8c8.511-9.349,18.514-17.222,29.6-23.3l2-1  c0.503-0.35,1.039-0.652,1.6-0.9c0.5,0.9,1.5,2.3,2.8,4.3l4.2,6.4l-1.3,0.8l-1.4,0.7c-6.8,3.815-13.199,8.304-19.1,13.4  c-5.696,4.707-10.621,10.274-14.6,16.5c-4.329,6.85-6.81,14.706-7.2,22.8c-0.368,7.676,1.434,15.301,5.2,22  c3.624,6.789,8.926,12.538,15.4,16.7c6.4,4,14.1,6.1,23.2,6.2c7.731,0.068,15.425-1.079,22.8-3.4c7.659-2.354,15.062-5.47,22.1-9.3  l1.4-0.8L1199.5,1358.55z"/>  <path id="path36" d="M1268.1,1165.85c0.1,0.8,0.9,10.2,2.5,28.4s2.9,32.8,4,44c7.3,7.9,15.1,16.1,23.4,24.7l16.2,16.6l-10.7,10.2  l-15.9-17.4c-8.2-8.8-15.7-16.8-22.4-23.8c-11.9-1.9-26.5-4.2-43.7-6.7l-27.7-4l2.3-14.6l23.2,4c14.2,2.4,28.4,4.8,42.5,7h0.1  c-1.3-13.7-2.7-28-4.3-43.1s-2.4-22.9-2.5-23.7L1268.1,1165.85z"/>  <path id="path38" d="M375.5,565.45l-195.9-104.7c-8.4-4.5-11.3-15.7-6.3-25l3.7-6.9l3.7-7  c4.9-9.3,15.8-13.2,24.3-8.7l196.9,105" fill="#FFFFFF"/>  <circle id="circle40" cx="825.4" cy="771.45" r="512" fill="#FBB03B"/>  <circle id="circle42" cx="825.4" cy="771.45" r="420" fill="#FFFFFF"/>  <circle id="circle44" cx="825.4" cy="771.45" r="307" fill="#FBB03B"/>  <circle id="circle46" cx="825.4" cy="771.45" r="213" fill="#FFFFFF"/>  <circle id="circle48" cx="825.4" cy="771.45" r="118" fill="#1A1A1A"/>  <path id="path50" d="M196.4,485.45l-44.4-25.5c-15.249-8.708-33.521-10.385-50.1-4.6L0,490.85l34.9,20  c21.31,12.242,46.879,14.65,70.1,6.6L196.4,485.45z" fill="#FBB03B"/>  <path id="path52" d="M268.4,529.55l-33-18.9c-11.307-6.503-24.879-7.78-37.2-3.5l-75.8,26.4l26,14.9  c15.798,9.125,34.798,10.879,52,4.8L268.4,529.55z" fill="#FBB03B"/>  <path id="path54" d="M333.4,560.95l-23.7-13.6c-8.125-4.638-17.855-5.549-26.7-2.5l-54.3,19l18.6,10.7  c11.34,6.526,24.967,7.768,37.3,3.4L333.4,560.95z" fill="#FBB03B"/>  <path id="path56" d="M640.7,703.05c-1.849-0.645-3.653-1.413-5.4-2.3l-232.2-123.7l-220.8-117.5  c-7.7-4.1-10.3-14.3-5.8-22.7l3.3-6.4l3.4-6.3c4.5-8.4,14.4-12,22.1-7.9l220.8,117.6l232.4,123.7c1.649,0.81,3.194,1.818,4.6,3  l115.5,88.7L640.7,703.05z" fill="#1A1A1A"/>  <circle id="circle58" cx="902.6" cy="704.35" r="59.2" fill="#FFFFFF"/>  <rect id="rect60" x="1195.3" y="818.25" width="41.8" height="41.76" fill="#FBB03B"/>  <rect id="rect62" x="1366.6" y="1067.65" width="60.9" height="60.88" fill="#FBB03B"/>  <rect id="rect64" x="1282.7" y="1049.45" width="37.1" height="37.08" fill="#FBB03B"/>  <rect id="rect66" x="1154.1" y="1016.45" width="51.3" height="51.2" fill="#FFFFFF"/>  <rect id="rect68" x="1381.2" y="928.25" width="61.1" height="61.08" fill="#FBB03B"/>  <rect id="rect70" x="1253.6" y="959.05" width="51.3" height="51.2" fill="#FFFFFF"/>  <rect id="rect72" x="1471" y="786.75" width="76.4" height="76.3" fill="#FBB03B"/>  <rect id="rect74" x="1312" y="893.85" width="35.7" height="35.68" fill="#FBB03B"/>  <rect id="rect76" x="1479" y="1010.55" width="37.3" height="37.31" fill="#FBB03B"/>  <rect id="rect78" x="1096.7" y="792.65" width="51.3" height="51.2" fill="#FFFFFF"/>  <rect id="rect80" x="1354.3" y="813.45" width="51.3" height="51.2" fill="#FBB03B"/>  <rect id="rect82" x="1419.8" y="679.25" width="51.3" height="51.2" fill="#FBB03B"/>  <rect id="rect84" x="1323.1" y="729.25" width="51.3" height="51.2" fill="#FFFFFF"/>  <rect id="rect86" x="1352.5" y="622.45" width="56.8" height="56.79" fill="#FBB03B"/>  <rect id="rect88" x="1227" y="637.85" width="58.4" height="58.33" fill="#FFFFFF"/>  <rect id="rect90" x="1479.1" y="511.85" width="51.3" height="51.2" fill="#FBB03B"/>  <rect id="rect92" x="1133.1" y="581.85" width="51.3" height="51.2" fill="#FBB03B"/>  <rect id="rect94" x="1277.9" y="511.65" width="51.3" height="51.2" fill="#FBB03B"/>  <rect id="rect96" x="1169.8" y="511.45" width="51.3" height="51.2" fill="#FFFFFF"/>  <rect id="rect98" x="1195" y="439.25" width="51.3" height="51.2" fill="#FFFFFF"/>  <rect id="rect100" x="1345.7" y="426.25" width="51.3" height="51.28" fill="#FBB03B"/>  <rect id="rect102" x="1461.7" y="391.05" width="35.5" height="35.48" fill="#FBB03B"/>  <rect id="rect104" x="1068" y="617.85" width="51.3" height="51.2" fill="#FFFFFF"/>  <rect id="rect106" x="1122.4" y="357.85" width="36.1" height="36.08" fill="#FFFFFF"/>  <rect id="rect108" x="1150.2" y="346.95" width="36.1" height="36.08" fill="#FBB03B"/>  <rect id="rect110" x="1397.8" y="543.45" width="35.9" height="35.84" fill="#FFFFFF"/>  <path id="path112" d="M639.7,702.75" fill="#FFFFFF"/>  <path id="path114" d="M662.2,660.25" fill="#FFFFFF"/></svg>